# xmcd
#
# Track frame offsets: 
#        150
#        11398
#        24058
#        37018
#        46645
#        58863
#        69258
#        79945
#        91488
#        101893
#        111305
#        120868
#        134228
#        144418
#        156758
#        168955
#        179155
#        189623
#        201738
#        212768
#        225788
#        237693
#        248645
#        260085
#        274523
#        287148
#        298798
#        307625
#        318638
#        332213
#
# Disc length: 4644 seconds
#
# Revision: 2
# Processed by: cddbd v1.5.2PL0 Copyright (c) Steve Scherf et al.
# Submitted via: ExactAudioCopyFreeDBPlugin 1.0
#
DISCID=bc12221e
DTITLE=Tillotson, Johnny - All His Early Hits - And More !!!
DYEAR=1990
DGENRE=Teen-pop
TTITLE0=Poetry In Motion
TTITLE1=It Keeps Right On A-Hurtin'
TTITLE2=Send Me The Pillow That You Dream On
TTITLE3=Without You
TTITLE4=You Can Never Stop Me Loving You
TTITLE5=Well I'm Your Man
TTITLE6=Dreamy Eyes
TTITLE7=True True Happiness
TTITLE8=Love Is Blind
TTITLE9=Why Do I Love You So
TTITLE10=Never Let Me go
TTITLE11=Earth Angel
TTITLE12=Princess Princess
TTITLE13=Jimmy's Girls
TTITLE14=(Little Sparrow) His True Love Said Goodbye
TTITLE15=Cuttie Pie
TTITLE16=She Gave Sweet Love To Me
TTITLE17=What'll I Do
TTITLE18=I Can't Help It (If I'm Still In Love With You)
TTITLE19=I'm So Lonesome I Could Cry
TTITLE20=Out Of My MInd
TTITLE21=Empty Feeling
TTITLE22=Judy Judy Judy
TTITLE23=Funny How Time Slips Away
TTITLE24=A Very Good Year For Girls
TTITLE25=Lonely Street
TTITLE26=I Got A Feeling
TTITLE27=Lonesome Town
TTITLE28=I Fall To Pieces
TTITLE29=Poetry In Motion - Take 2
EXTD=
EXTT0=
EXTT1=
EXTT2=
EXTT3=
EXTT4=
EXTT5=
EXTT6=
EXTT7=
EXTT8=
EXTT9=
EXTT10=
EXTT11=
EXTT12=
EXTT13=
EXTT14=
EXTT15=
EXTT16=
EXTT17=
EXTT18=
EXTT19=
EXTT20=
EXTT21=
EXTT22=
EXTT23=
EXTT24=
EXTT25=
EXTT26=
EXTT27=
EXTT28=
EXTT29=
PLAYORDER=
